<svg width="28" height="28" viewBox="0 0 28 28" fill="none" xmlns="http://www.w3.org/2000/svg">
<path fill-rule="evenodd" clip-rule="evenodd" d="M3.88754 25.2009L1.64062 0H26.3306L24.0813 25.1968L13.9707 28L3.88754 25.2009Z" fill="#12EAEA"/>
<path fill-rule="evenodd" clip-rule="evenodd" d="M14.0063 25.8559L22.1661 23.6112L24.0779 2.09863H14.0063V25.8559Z" fill="#12EAEA"/>
<path fill-rule="evenodd" clip-rule="evenodd" d="M6.78381 11.3574L7.05448 14.4436L14.0064 11.3574V8.26611L6.78381 11.3574Z" fill="#4A4A4F"/>
<path fill-rule="evenodd" clip-rule="evenodd" d="M21.7058 4.96631L14.0063 8.26606V11.3573L21.4403 8.05256L21.7058 4.96631Z" fill="#4A4A4F"/>
<path fill-rule="evenodd" clip-rule="evenodd" d="M14.0064 19.4324L13.9825 19.4359L10.5348 18.5101L10.3096 16.0483H7.20673L7.63973 20.8981L13.9818 22.6541L14.0064 22.6483V19.4324Z" fill="#4A4A4F"/>
<path fill-rule="evenodd" clip-rule="evenodd" d="M14.0063 11.3574V14.4437H17.781L17.4379 18.4787L14.0063 19.4352V22.6509L20.3274 20.8949L21.1597 11.3574H14.0063Z" fill="#4A4A4F"/>
<path fill-rule="evenodd" clip-rule="evenodd" d="M14.0064 11.3574H6.78381L7.05448 14.4437H14.0064V11.3574Z" fill="#4A4A4F"/>
<path fill-rule="evenodd" clip-rule="evenodd" d="M14.0063 8.05256V4.96631H13.975H6.23505L6.50892 8.05256H14.0063Z" fill="#4A4A4F"/>
<path fill-rule="evenodd" clip-rule="evenodd" d="M14.0063 4.96631V8.01386V8.05256H21.4403L21.7058 4.96631H14.0063Z" fill="#4A4A4F"/>
</svg>
