<svg width="28" height="28" viewBox="0 0 28 28" fill="none" xmlns="http://www.w3.org/2000/svg">
<g clip-path="url(#clip0_342_472)">
<path d="M20.8747 15.5956C20.8747 14.1994 20.7802 13.895 18.9012 13.4437C17.6941 13.1497 17.6731 13.1287 17.6731 12.331C17.6731 11.7221 17.8305 11.5332 18.7228 11.5332C19.3316 11.5332 20.0139 11.6172 20.5913 11.7431L20.7382 10.6305C20.0454 10.473 19.3106 10.3995 18.7018 10.3995C16.9278 10.3995 16.3505 11.0293 16.3505 12.2995C16.3505 13.7796 16.5814 14.105 18.2714 14.4829C19.5311 14.7558 19.5521 14.8188 19.5521 15.5956C19.5521 16.2674 19.3946 16.4668 18.4394 16.4668C17.7466 16.4668 17.1167 16.3408 16.4659 16.1414L16.235 17.1806C16.6969 17.401 17.6206 17.6005 18.4184 17.6005C20.4863 17.6005 20.8747 16.9182 20.8747 15.5956Z" fill="#bdf9f9"/>
<path fill-rule="evenodd" clip-rule="evenodd" d="M25.063 11.7116C23.8243 11.7116 23.31 11.9216 23.31 12.9923V13.6431C23.6774 13.5171 24.1078 13.4542 24.5591 13.4542C25.8293 13.4542 26.3436 13.979 26.3436 15.1862V15.69C26.3436 16.7817 25.8398 17.6005 24.1917 17.6005C22.3863 17.6005 22.0294 16.8027 22.0294 15.5955V13.0448C22.0294 11.1973 23.0161 10.6095 24.9265 10.6095C25.3149 10.6095 25.8188 10.6619 26.1337 10.7354L26.0497 11.8061C25.7453 11.7431 25.2834 11.7116 25.063 11.7116ZM25.063 15.2177C25.063 14.7138 24.8216 14.5563 24.3597 14.5563C23.9818 14.5563 23.6039 14.6508 23.31 14.7768V15.732C23.31 16.3093 23.5304 16.4983 24.1917 16.4983C24.8531 16.4983 25.063 16.2674 25.063 15.732V15.2177Z" fill="#bdf9f9"/>
<path d="M10.871 17.4955H15.1538V16.3303H12.1936V14.5249H14.9229V13.3597H12.1936V11.6697H15.1538V10.5045H10.871V17.4955Z" fill="#bdf9f9"/>
<path fill-rule="evenodd" clip-rule="evenodd" d="M0 28V0H28V28H0ZM0.672 0.672H27.328V27.328H0.672V0.672Z" fill="#bdf9f9"/>
</g>
<defs>
<clipPath id="clip0_342_472">
<rect width="28" height="28" fill="white"/>
</clipPath>
</defs>
</svg>
