<svg width="28" height="28" viewBox="0 0 28 28" fill="none" xmlns="http://www.w3.org/2000/svg">
<g clip-path="url(#clip0_342_402)">
<path d="M9.36979 27.9998C11.9458 27.9998 14.0365 25.9092 14.0365 23.3332V18.6665H9.36979C6.79379 18.6665 4.70312 20.7572 4.70312 23.3332C4.70312 25.9092 6.79379 27.9998 9.36979 27.9998Z" fill="#12EAEA"/>
<path d="M4.70312 14.0002C4.70312 11.4242 6.79379 9.3335 9.36979 9.3335H14.0365V18.6668H9.36979C6.79379 18.6668 4.70312 16.5762 4.70312 14.0002Z" fill="#12EAEA"/>
<path d="M4.70312 4.66667C4.70312 2.09067 6.79379 0 9.36979 0H14.0365V9.33333H9.36979C6.79379 9.33333 4.70312 7.24267 4.70312 4.66667Z" fill="#12EAEA"/>
<path d="M14.0364 0H18.7031C21.2791 0 23.3698 2.09067 23.3698 4.66667C23.3698 7.24267 21.2791 9.33333 18.7031 9.33333H14.0364V0Z" fill="#12EAEA"/>
<path d="M23.3698 14.0002C23.3698 16.5762 21.2791 18.6668 18.7031 18.6668C16.1271 18.6668 14.0364 16.5762 14.0364 14.0002C14.0364 11.4242 16.1271 9.3335 18.7031 9.3335C21.2791 9.3335 23.3698 11.4242 23.3698 14.0002Z" fill="#12EAEA"/>
</g>
<defs>
<clipPath id="clip0_342_402">
<rect width="28" height="28" fill="white"/>
</clipPath>
</defs>
</svg>
