<svg width="28" height="28" viewBox="0 0 28 28" fill="none" xmlns="http://www.w3.org/2000/svg">
<rect x="0.0253623" y="0.0253623" width="27.9493" height="27.9493" rx="0.228261" stroke="#9747FF" stroke-width="0.0507246" stroke-dasharray="0.51 0.25"/>
<g clip-path="url(#clip0_342_424)">
<path d="M4.56519 21.9771L4.72241 21.7569L12.1599 7.64471L12.1756 7.49532L8.89698 1.33699C8.62229 0.821114 7.84901 0.951545 7.75886 1.52902L4.56519 21.9771Z" fill="#4AFFFF"/>
<path d="M4.6579 21.809L4.77683 21.5771L12.1363 7.61276L8.86597 1.42938C8.59416 0.918912 7.90395 1.04904 7.81475 1.62047L4.6579 21.809Z" fill="#12FFFF"/>
<path d="M14.5657 12.1537L17.0068 9.65358L14.565 4.99206C14.3332 4.55081 13.686 4.54954 13.4566 4.99206L12.152 7.48013V7.69203L14.5657 12.1537Z" fill="#62F4F4"/>
<path d="M14.5221 12.0494L16.8954 9.61885L14.5221 5.09979C14.2968 4.67081 13.7493 4.62587 13.5263 5.05608L12.2148 7.5827L12.1756 7.71187L14.5221 12.0494Z" fill="#0EFFFF"/>
<path d="M4.56519 21.9775L4.63645 21.9058L4.89539 21.8006L14.4123 12.319L14.5329 11.9908L12.1588 7.4668L4.56519 21.9775Z" fill="#12EAEA"/>
<path d="M14.8705 26.7587L23.4835 21.9552L21.0239 6.80737C20.947 6.33343 20.3655 6.14606 20.0263 6.48589L4.56519 21.977L13.1288 26.7583C13.67 27.0605 14.3291 27.0606 14.8705 26.7587Z" fill="#68FDFD"/>
<path d="M23.4063 21.9155L20.9654 6.88262C20.889 6.41229 20.4055 6.21766 20.0689 6.5549L4.66064 21.9481L13.1302 26.6821C13.6673 26.982 14.3214 26.9821 14.8587 26.6825L23.4063 21.9155Z" fill="#3FFCFC"/>
<path d="M14.8705 26.6175C14.3291 26.9194 13.67 26.9193 13.1288 26.6171L4.63416 21.9044L4.56519 21.9772L13.1288 26.7586C13.67 27.0608 14.3291 27.0609 14.8705 26.759L23.4835 21.9555L23.4624 21.8257L14.8705 26.6175Z" fill="#37EEEE"/>
</g>
<defs>
<clipPath id="clip0_342_424">
<rect width="25.971" height="25.971" fill="white" transform="translate(1.01447 1.01416)"/>
</clipPath>
</defs>
</svg>
