<svg width="28" height="28" viewBox="0 0 28 28" fill="none" xmlns="http://www.w3.org/2000/svg">
<g clip-path="url(#clip0_342_481)">
<path fill-rule="evenodd" clip-rule="evenodd" d="M27.0518 12.7879L15.1596 0.89654C14.4752 0.21157 13.3644 0.21157 12.6791 0.89654L10.2097 3.36596L13.3422 6.49853C14.0703 6.25258 14.9049 6.41754 15.4853 6.99792C16.0684 7.58187 16.2322 8.42374 15.9802 9.15414L18.9992 12.1731C19.7296 11.9215 20.5724 12.0844 21.1558 12.6686C21.971 13.4836 21.971 14.8045 21.1558 15.6201C20.3402 16.4357 19.0193 16.4357 18.2034 15.6201C17.5901 15.0063 17.4386 14.1055 17.7491 13.35L14.9336 10.5345L14.9333 17.9437C15.1321 18.0423 15.3198 18.1735 15.4853 18.3385C16.3006 19.1534 16.3006 20.4744 15.4853 21.2905C14.6698 22.1058 13.3482 22.1058 12.5339 21.2905C11.7186 20.4744 11.7186 19.1534 12.5339 18.3385C12.7353 18.1374 12.9684 17.9852 13.217 17.883V10.4048C12.9684 10.3032 12.7356 10.152 12.5339 9.94938C11.9161 9.33255 11.7676 8.42613 12.0841 7.66765L8.99633 4.5793L0.842138 12.7329C0.156869 13.4185 0.156869 14.5293 0.842138 15.2143L12.7344 27.1059C13.4191 27.7909 14.5296 27.7909 15.2152 27.1059L27.0518 15.2696C27.7368 14.5843 27.7368 13.4729 27.0518 12.7879" fill="#bdf9f9"/>
</g>
<defs>
<clipPath id="clip0_342_481">
<rect width="27.3438" height="27.2374" fill="white" transform="translate(0.328125 0.382812)"/>
</clipPath>
</defs>
</svg>
