<svg width="28" height="28" viewBox="0 0 28 28" fill="none" xmlns="http://www.w3.org/2000/svg">
<path fill-rule="evenodd" clip-rule="evenodd" d="M3.88747 25.201L1.64062 0H26.3296L24.0804 25.1971L13.97 28L3.88747 25.201Z" fill="#bdf9f9"/>
<path fill-rule="evenodd" clip-rule="evenodd" d="M13.9851 25.8576L22.1548 23.5926L24.0769 2.06055H13.9851V25.8576Z" fill="#bdf9f9"/>
<path d="M9.89519 11.4072H13.9851V14.498H7.06851L6.23486 5.15137H13.9851V8.2422H9.61272L9.89519 11.4072Z" fill="#4A4A4F"/>
<path d="M13.9716 19.438L13.9851 19.4344V22.6501L13.9709 22.6541L7.63963 20.8965L7.20661 16.0434H10.3093L10.5293 18.5085L13.9716 19.438Z" fill="#4A4A4F"/>
<path d="M13.9744 5.15137H21.7169L21.4402 8.2422H13.9744V5.15137Z" fill="#4A4A4F"/>
<path d="M13.9744 14.498V11.4072H21.1589L21.0835 12.2372L20.3107 20.8965L13.9744 22.6526V19.437L17.4216 18.5065L17.7804 14.498H13.9744Z" fill="#4A4A4F"/>
</svg>
