<svg width="60" height="60" viewBox="0 0 60 60" fill="none" xmlns="http://www.w3.org/2000/svg">
<path fill-rule="evenodd" clip-rule="evenodd" d="M29.9999 56.2495C43.4618 56.2495 54.3749 44.497 54.3749 29.9995C54.3749 15.502 43.4618 3.74951 29.9999 3.74951C16.538 3.74951 5.62491 15.502 5.62491 29.9995C5.62491 44.497 16.538 56.2495 29.9999 56.2495ZM28.1249 50.6245C38.4802 50.6245 46.8749 41.3904 46.8749 29.9995C46.8749 18.6086 38.4802 9.37451 28.1249 9.37451C17.7696 9.37451 9.37491 18.6086 9.37491 29.9995C9.37491 41.3904 17.7696 50.6245 28.1249 50.6245Z" fill="#D9F963"/>
<path fill-rule="evenodd" clip-rule="evenodd" d="M28.1249 48.7495C37.4447 48.7495 44.9999 40.3549 44.9999 29.9995C44.9999 19.6442 37.4447 11.2495 28.1249 11.2495C18.8051 11.2495 11.2499 19.6442 11.2499 29.9995C11.2499 40.3549 18.8051 48.7495 28.1249 48.7495ZM26.2499 41.2495C31.4276 41.2495 35.6249 36.2127 35.6249 29.9995C35.6249 23.7863 31.4276 18.7495 26.2499 18.7495C21.0722 18.7495 16.8749 23.7863 16.8749 29.9995C16.8749 36.2127 21.0722 41.2495 26.2499 41.2495Z" fill="#D9F963"/>
<path d="M33.7499 29.9995C33.7499 35.1772 30.392 39.3745 26.2499 39.3745C22.1078 39.3745 18.7499 35.1772 18.7499 29.9995C18.7499 24.8218 22.1078 20.6245 26.2499 20.6245C30.392 20.6245 33.7499 24.8218 33.7499 29.9995Z" fill="#D9F963"/>
</svg>
