<svg width="60" height="60" viewBox="0 0 60 60" fill="none" xmlns="http://www.w3.org/2000/svg">
<path d="M7.50031 37.5004C7.50031 35.4293 9.17924 33.7504 11.2503 33.7504H22.5003C24.5714 33.7504 26.2503 35.4293 26.2503 37.5004V48.7504C26.2503 50.8214 24.5714 52.5004 22.5003 52.5004H11.2503C9.17924 52.5004 7.50031 50.8214 7.50031 48.7504V37.5004Z" fill="#D9F963"/>
<path d="M5.62531 15.0002C5.62531 12.9292 7.30424 11.2502 9.37531 11.2502H22.5003C24.5714 11.2502 26.2503 12.9292 26.2503 15.0002V28.1252C26.2503 30.1963 24.5714 31.8752 22.5003 31.8752H9.37531C7.30424 31.8752 5.62531 30.1963 5.62531 28.1252V15.0002Z" fill="#D9F963"/>
<path d="M28.1253 37.5004C28.1253 35.4293 29.8042 33.7504 31.8753 33.7504H45.0003C47.0714 33.7504 48.7503 35.4293 48.7503 37.5004V50.6254C48.7503 52.6964 47.0714 54.3754 45.0003 54.3754H31.8753C29.8042 54.3754 28.1253 52.6964 28.1253 50.6254V37.5004Z" fill="#D9F963"/>
<path d="M28.1253 9.37537C28.1253 7.3043 29.8042 5.62537 31.8753 5.62537H50.6253C52.6964 5.62537 54.3753 7.3043 54.3753 9.37537V28.1254C54.3753 30.1964 52.6964 31.8754 50.6253 31.8754H31.8753C29.8042 31.8754 28.1253 30.1964 28.1253 28.1254V9.37537Z" fill="#D9F963"/>
</svg>
