<svg width="60" height="60" viewBox="0 0 60 60" fill="none" xmlns="http://www.w3.org/2000/svg">
<path d="M47.9754 34.6877L39.1711 17.8127H52.4999C53.5354 17.8127 54.3749 18.6522 54.3749 19.6877V32.8127C54.3749 33.8483 53.5354 34.6877 52.4999 34.6877H47.9754Z" fill="#bdf9f9"/>
<path d="M20.5289 25.5749L30.9374 5.62524L53.4374 48.7502H28.2941C30.5208 46.2623 31.8748 42.9769 31.8748 39.3752C31.8748 32.5381 26.9954 26.8405 20.5289 25.5749Z" fill="#bdf9f9"/>
<path d="M30 39.3752C30 46.1062 24.5435 51.5627 17.8125 51.5627C11.0815 51.5627 5.62499 46.1062 5.62499 39.3752C5.62499 32.6443 11.0815 27.1877 17.8125 27.1877C24.5435 27.1877 30 32.6443 30 39.3752Z" fill="#bdf9f9"/>
</svg>
