<svg width="20" height="20" viewBox="0 0 20 20" fill="none" xmlns="http://www.w3.org/2000/svg">
<path d="M1.36364 18.0036H4.54545V10.2763L0 6.86725V16.64C0 17.3934 0.610227 18.0036 1.36364 18.0036Z" fill="#42F4F4"/>
<path d="M15.4545 18.0036H18.6363C19.3898 18.0036 20 17.3934 20 16.64V6.86725L15.4545 10.2763V18.0036Z" fill="#34A8A8"/>
<path d="M15.4545 4.36731V10.2764L20 6.86731V5.04913C20 3.3639 18.0761 2.4014 16.7273 3.41277L15.4545 4.36731Z" fill="#04FBFB"/>
<path fill-rule="evenodd" clip-rule="evenodd" d="M4.54547 10.2763V4.36725L10 8.45816L15.4546 4.36725V10.2763L10 14.3672L4.54547 10.2763Z" fill="#35EAEA"/>
<path d="M0 5.04913V6.86731L4.54545 10.2764V4.36731L3.27273 3.41277C1.92386 2.4014 0 3.3639 0 5.04913Z" fill="#1FC5C5"/>
</svg>
