<svg width="14" height="14"  viewBox="0 0 14 14" fill="none" xmlns="http://www.w3.org/2000/svg">
<path fill="currentColor" d="M3.99305 11.2779C3.77827 11.6499 3.90573 12.1255 4.27774 12.3403C4.64974 12.5551 5.12542 12.4276 5.3402 12.0556L3.99305 11.2779ZM10.8623 2.03539C10.7512 1.62047 10.3247 1.37424 9.90977 1.48542L3.14829 3.29715C2.73337 3.40833 2.48714 3.83481 2.59831 4.24973C2.70949 4.66465 3.13597 4.91088 3.55089 4.7997L9.5611 3.18927L11.1715 9.19948C11.2827 9.6144 11.7092 9.86063 12.1241 9.74945C12.539 9.63827 12.7853 9.21179 12.6741 8.79687L10.8623 2.03539ZM5.3402 12.0556L10.7846 2.62558L9.43749 1.8478L3.99305 11.2779L5.3402 12.0556Z" />
</svg>
