<svg width="20" height="20" viewBox="0 0 20 20" fill="none" xmlns="http://www.w3.org/2000/svg">
<path fill-rule="evenodd" clip-rule="evenodd" d="M10.0076 0.769226C4.89903 0.769226 0.769226 4.92948 0.769226 10.0763C0.769226 14.1904 3.41534 17.6729 7.08619 18.9055C7.54514 18.9981 7.71325 18.7052 7.71325 18.4588C7.71325 18.243 7.69813 17.5035 7.69813 16.7329C5.12822 17.2877 4.59307 15.6234 4.59307 15.6234C4.18007 14.5448 3.56813 14.2675 3.56813 14.2675C2.727 13.6974 3.6294 13.6974 3.6294 13.6974C4.56243 13.759 5.05202 14.6527 5.05202 14.6527C5.87783 16.0703 7.20854 15.6697 7.74389 15.4231C7.82029 14.8222 8.06517 14.4062 8.32519 14.1751C6.27551 13.9593 4.11899 13.1581 4.11899 9.5831C4.11899 8.56611 4.48584 7.73406 5.06714 7.08695C4.97543 6.85586 4.65415 5.90033 5.15905 4.62143C5.15905 4.62143 5.9391 4.37484 7.69794 5.57678C8.45096 5.37305 9.22754 5.26941 10.0076 5.26854C10.7877 5.26854 11.5829 5.37652 12.3171 5.57678C14.0762 4.37484 14.8562 4.62143 14.8562 4.62143C15.3611 5.90033 15.0396 6.85586 14.9479 7.08695C15.5445 7.73406 15.8963 8.56611 15.8963 9.5831C15.8963 13.1581 13.7398 13.9438 11.6748 14.1751C12.0114 14.4678 12.3018 15.0224 12.3018 15.9008C12.3018 17.1489 12.2867 18.1506 12.2867 18.4586C12.2867 18.7052 12.455 18.9981 12.9138 18.9057C16.5846 17.6727 19.2307 14.1904 19.2307 10.0763C19.2459 4.92948 15.1009 0.769226 10.0076 0.769226Z" fill="#12EAEA"/>
</svg>
