<svg width="20" height="20" viewBox="0 0 20 20" fill="none" xmlns="http://www.w3.org/2000/svg">
<path d="M0.647338 3.6536C0.215004 3.24674 0 2.74312 0 2.1439C0 1.54468 0.216154 1.01891 0.647338 0.610877C1.07967 0.204013 1.63619 0 2.31804 0C2.99988 0 3.53456 0.204013 3.96574 0.610877C4.39808 1.01774 4.61308 1.52953 4.61308 2.1439C4.61308 2.75828 4.39693 3.24674 3.96574 3.6536C3.53341 4.06047 2.98493 4.26448 2.31804 4.26448C1.65114 4.26448 1.07967 4.06047 0.647338 3.6536ZM4.24975 5.98753V18.4616H0.362183V5.98753H4.24975Z" fill="#12EAEA"/>
<path d="M17.191 7.22C18.0384 8.15264 18.4615 9.43268 18.4615 11.0625V18.2414H14.7695V11.5684C14.7695 10.7465 14.5591 10.1077 14.1394 9.653C13.7197 9.19834 13.154 8.96986 12.4457 8.96986C11.7374 8.96986 11.1717 9.19718 10.752 9.653C10.3323 10.1077 10.1219 10.7465 10.1219 11.5684V18.2414H6.40796V5.95278H10.1219V7.58255C10.4979 7.03929 11.005 6.61028 11.642 6.29435C12.279 5.97842 12.9953 5.82104 13.7921 5.82104C15.211 5.82104 16.3447 6.28736 17.191 7.22Z" fill="#12EAEA"/>
</svg>
