<svg width="28" height="28" viewBox="0 0 28 28" fill="none" xmlns="http://www.w3.org/2000/svg">
<path d="M9.50497 22.1021C9.91835 22.835 10.2944 23.4552 11.1964 23.4552C12.061 23.4552 12.6061 23.1169 12.6061 21.8014V12.8547H15.2374V21.8386C15.2374 24.5639 13.6399 25.8044 11.3092 25.8044C9.20426 25.8044 7.9824 24.7142 7.36218 23.3986L9.50497 22.1021Z" fill="#bdf9f9"/>
<path d="M21.403 23.474C20.1062 23.474 19.3732 22.7975 18.8092 21.8764L16.6667 23.1169C17.4372 24.6394 19.016 25.8046 21.4594 25.8046C23.9592 25.8046 25.8199 24.5079 25.8199 22.1395C25.8199 19.9405 24.5605 18.9633 22.3239 18.0047L21.6661 17.7228C20.5385 17.234 20.0498 16.9144 20.0498 16.125C20.0498 15.4861 20.5385 14.9974 21.3091 14.9974C22.0609 14.9974 22.5494 15.3169 23.0005 16.125L25.0492 14.8094C24.1848 13.287 22.9819 12.7043 21.3091 12.7043C18.9596 12.7043 17.456 14.208 17.456 16.1815C17.456 18.3242 18.7153 19.3391 20.6137 20.1472L21.2714 20.4293C22.4743 20.9554 23.1885 21.2749 23.1885 22.1771C23.1885 22.9289 22.4932 23.474 21.403 23.474Z" fill="#bdf9f9"/>
<path fill-rule="evenodd" clip-rule="evenodd" d="M0 0V28H28V0H0ZM27.552 0.448H0.448V27.552H27.552V0.448Z" fill="#bdf9f9"/>
</svg>
