<svg width="36" height="36" viewBox="0 0 36 36" fill="none" xmlns="http://www.w3.org/2000/svg">
<path d="M11.9904 15.913L8.47189 12.3944C7.12545 11.048 7.12545 8.86498 8.4719 7.51853V7.51853C9.81834 6.17209 12.0014 6.17209 13.3478 7.51853L16.8663 11.0371L11.9904 15.913Z" fill="white"/>
<rect x="23.7317" y="24.4783" width="6.89557" height="6.89557" rx="3.44779" transform="rotate(-135 23.7317 24.4783)" fill="#12EAEA"/>
<path fill-rule="evenodd" clip-rule="evenodd" d="M2.27729 27.8597C1.73871 28.3983 1.73871 29.2715 2.27729 29.8101C4.4316 31.9644 7.92442 31.9644 10.0787 29.8101L18.81 21.0788C18.3041 19.3012 18.751 17.3097 20.1506 15.9101C21.5502 14.5105 23.5417 14.0637 25.3193 14.5695L32.8214 7.06744C33.36 6.52886 33.36 5.65566 32.8214 5.11708C30.6671 2.96277 27.1743 2.96276 25.0199 5.11707L2.27729 27.8597Z" fill="white"/>
</svg>
