<svg width="28" height="28" viewBox="0 0 28 28" fill="none" xmlns="http://www.w3.org/2000/svg">
<path d="M19.0635 18.8616C20.0322 18.763 20.7671 17.942 20.7336 16.9567C20.7003 15.9715 19.8651 15.1833 18.863 15.1833H18.7963C17.7606 15.2161 16.959 16.07 16.9924 17.088C17.0258 17.5807 17.2262 18.0076 17.5268 18.3032C16.3911 20.5037 14.6541 22.1129 12.0486 23.4594C10.2781 24.379 8.44095 24.7074 6.60375 24.4775C5.10053 24.2805 3.93138 23.6237 3.19638 22.5398C2.12751 20.9306 2.02733 19.1899 2.92927 17.4493C3.56398 16.2013 4.56599 15.2818 5.20071 14.822C5.0671 14.395 4.86664 13.6725 4.76646 13.1471C-0.0771788 16.5955 0.423929 21.259 1.89372 23.4594C2.99602 25.1016 5.23414 26.1196 7.70605 26.1196C8.37409 26.1196 9.04213 26.0539 9.71028 25.8898C13.9861 25.0687 17.2263 22.5727 19.0635 18.8616V18.8616ZM24.9427 14.7892C22.4039 11.8662 18.6627 10.257 14.3869 10.257H13.8524C13.5518 9.66589 12.9171 9.27173 12.2156 9.27173H12.1488C11.1133 9.30459 10.3117 10.1584 10.345 11.1766C10.3784 12.1618 11.2135 12.95 12.2156 12.95H12.2824C13.0173 12.9172 13.652 12.4574 13.9192 11.8334H14.5205C17.0593 11.8334 19.4643 12.5559 21.6357 13.9681C23.3058 15.0519 24.5084 16.4641 25.1764 18.1718C25.7443 19.5512 25.7109 20.8977 25.1096 22.0472C24.1743 23.7878 22.6044 24.7403 20.5333 24.7403C19.1971 24.7403 17.9278 24.3461 17.2596 24.0505C16.8922 24.379 16.2241 24.9044 15.7564 25.2329C17.1929 25.8897 18.6627 26.251 20.0656 26.251C23.2724 26.251 25.6441 24.5103 26.5461 22.7697C27.5147 20.8649 27.4479 17.5807 24.9427 14.7892V14.7892ZM7.97326 19.4198C8.00669 20.4051 8.84177 21.1932 9.84389 21.1932H9.91074C10.9463 21.1604 11.7479 20.3065 11.7145 19.2884C11.6812 18.3031 10.846 17.515 9.84389 17.515H9.77713C9.71028 17.515 9.60999 17.515 9.54334 17.5477C8.17373 15.3145 7.60587 12.8843 7.80633 10.2569C7.93984 8.28642 8.60798 6.57862 9.77713 5.16638C10.7458 3.95123 12.6164 3.36009 13.8859 3.32733C17.4266 3.2616 18.9298 7.59669 19.0301 9.33735C19.4643 9.43584 20.1992 9.66579 20.7003 9.83001C20.2994 4.50971 16.959 1.75098 13.7523 1.75098C10.7458 1.75098 7.97327 3.88571 6.87087 7.03851C5.33432 11.2422 6.33643 15.2818 8.20705 18.4674C8.04012 18.6973 7.93984 19.0586 7.97326 19.4199V19.4198Z" fill="#bdf9f9"/>
</svg>
