<svg width="28" height="28" viewBox="0 0 28 28" fill="none" xmlns="http://www.w3.org/2000/svg">
<path fill-rule="evenodd" clip-rule="evenodd" d="M9.41988 17.0357C8.98592 17.3071 8.3321 17.7467 7.82629 18.2249C6.99589 19.0091 6.82213 20.0969 7.26019 20.351C7.6654 20.5859 8.61141 20.3064 9.28848 19.5679C9.99904 18.7926 10.2921 17.8097 9.98943 16.6939C9.95387 16.7151 9.91897 16.7364 9.88472 16.7562L9.88547 16.7577L9.83955 16.7837C9.66289 16.8892 9.51852 16.9761 9.41988 17.0357ZM21.6145 16.6837C21.3687 17.2178 21.3564 17.3897 21.4311 17.4432C21.7877 17.3151 22.3778 17.0063 22.3825 16.1788C22.3832 16.0548 22.3559 15.9219 22.312 15.7829C21.9307 16.1205 21.7109 16.474 21.6145 16.6837ZM25.4417 15.0685C24.4889 14.9575 23.7454 15.0911 23.1684 15.3315C23.2752 15.6096 23.3574 15.8993 23.3689 16.1911C23.3957 16.8316 22.9548 17.3056 22.4954 17.644C22.2271 17.8412 21.9416 17.9727 21.702 18.0521C21.5104 18.133 21.2557 18.2165 21.0749 18.1796C20.6764 18.0986 20.4643 17.7446 20.7354 16.9638C20.8819 16.5412 21.3042 15.898 21.9861 15.3439C21.8307 15.024 21.6575 14.698 21.5692 14.3985C21.3952 13.8082 21.3427 13.4513 21.3427 13.4513C21.3427 13.4513 20.7807 14.6164 20.0557 15.676C20.0139 15.7376 19.9721 15.798 19.9303 15.8582C20.0727 16.1891 20.1849 16.5391 20.2001 16.892C20.2268 17.5323 19.9496 18.0166 19.4895 18.3542C19.2404 18.5379 18.9747 18.6647 18.7467 18.7454C18.6009 18.8091 18.3044 18.9138 17.8828 18.942C17.6522 18.9578 17.4304 18.9435 17.3065 18.8496C17.136 18.7208 17.1155 18.5619 17.2038 18.3447C17.2785 18.1604 17.837 17.5228 18.3053 16.9646C18.4346 16.8104 18.5578 16.6529 18.668 16.507L18.6653 16.5007C18.6653 16.5007 18.7502 16.3913 18.8878 16.2001C18.7167 15.8316 18.4997 15.448 18.3977 15.1C18.2237 14.5097 18.1711 14.1527 18.1711 14.1527C18.1711 14.1527 17.6014 15.6131 17.008 16.7789C16.5488 17.6818 16.242 18.229 16.1038 18.4687L16.1024 18.4784C16.1024 18.4784 16.0818 18.5134 16.0462 18.5681L16.0196 18.6126L16.0189 18.6084C15.8648 18.836 15.5191 19.2818 15.1755 19.2818C14.2322 19.2818 14.5785 17.3659 14.5785 17.3659C14.5785 17.3659 14.3027 18.0756 13.9919 18.6845C13.7387 19.1811 13.508 19.6018 13.0035 19.6018C12.8584 19.6018 12.6283 19.5976 12.4373 19.416C12.004 19.0043 11.6727 17.959 11.7377 17.1494C11.7931 16.4611 11.8992 15.9843 12.0443 15.5865C11.7855 15.7275 11.4864 15.8947 11.1818 16.0735L10.7135 16.3495L10.7286 16.3769C11.116 17.1263 11.2194 18.7681 10.3747 20.0285C9.53 21.2894 7.95759 22.0567 6.4256 21.6306C5.93126 21.4929 5.18449 20.4703 5.82861 19.0448C6.39676 17.7879 8.66741 16.5995 9.2658 16.3029L9.43005 16.2125C8.237 15.1685 5.25775 13.7603 4.84022 11.5972C4.72244 10.9882 5.00792 9.532 6.7959 7.85797C8.29981 6.45037 10.3918 5.37221 12.3244 4.68516C15.5711 3.53103 19.0015 4.21182 19.5292 6.28183C20.0481 8.31759 18.2821 10.7527 16.0203 11.628C14.0008 12.4095 12.3312 12.2856 11.6453 12.0603C10.8655 11.8041 10.4083 11.2897 10.2967 10.9992C10.2529 10.8856 10.1775 10.6945 10.2967 10.6287C10.3699 10.5883 10.3993 10.5979 10.5951 10.8144C10.7814 11.0199 11.5302 11.5713 12.9527 11.4116C16.6857 10.9932 18.9343 8.0909 18.2237 6.52914C17.7261 5.43595 14.849 4.94273 11.2543 6.73529C6.86636 8.92307 6.6282 10.7266 6.59059 11.4116C6.48784 13.2959 8.91453 14.2871 10.2276 15.6885L10.2782 15.744C10.5239 15.6084 10.7834 15.4652 11.038 15.3255C11.7 14.9617 12.3244 14.6206 12.6153 14.4616C13.0774 13.7899 14.0151 13.0486 14.6922 13.0486C15.7745 13.0486 15.4027 14.6042 15.4027 14.6042C15.4027 14.6042 15.4247 14.533 15.4541 14.5324C15.4849 14.5315 15.604 14.3274 15.9381 14.4493C16.2818 14.5754 16.2036 14.8165 16.2058 14.8412C16.2099 14.889 15.7998 16.272 15.6294 17.159C15.5479 17.5824 15.5951 17.8907 15.6192 17.8907C15.6527 17.8907 15.7212 17.7831 15.7848 17.6674L15.7834 17.6639C15.7834 17.6639 15.8313 17.5763 15.9115 17.4188L15.9272 17.3858L15.9279 17.3873C16.0224 17.2023 16.1551 16.9304 16.3084 16.5934C16.6089 15.9311 17.7555 13.374 17.8528 13.0912C17.9499 12.8083 18.0006 12.5158 18.0486 12.3904C18.0958 12.2651 18.5011 12.1705 18.9747 12.174C19.4484 12.1774 19.4965 12.3795 19.4997 12.4213C19.5032 12.463 19.2745 13.0241 19.2218 13.4206C19.1698 13.8172 19.2199 14.0151 19.263 14.3481C19.2911 14.5658 19.4272 14.8419 19.5882 15.1549C20.0783 14.3535 20.9407 12.8205 21.0236 12.3911C21.0804 12.0973 21.1714 11.8157 21.2194 11.6903C21.2673 11.565 21.6719 11.4705 22.1455 11.4739C22.6193 11.4773 22.6671 11.6794 22.6706 11.7212C22.674 11.763 22.4446 12.324 22.3927 12.7206C22.3406 13.1165 22.3907 13.3151 22.4337 13.648C22.4708 13.9329 22.6911 14.3159 22.9096 14.7514C23.5057 14.4575 24.2074 14.2603 25.029 14.2562C25.3691 14.2543 25.7642 14.2884 25.9682 14.3521V7.79899C25.9682 7.33666 25.7312 6.91064 25.3309 6.67985L14.6409 0.501287C14.2412 0.270404 13.7518 0.270404 13.352 0.501287L2.69154 6.67687C2.29174 6.90775 2.07812 7.33452 2.07812 7.7961V20.1586C2.07812 20.6201 2.29305 21.0469 2.69219 21.2777L13.3698 27.4581C13.7695 27.6897 14.2542 27.6897 14.6539 27.4581L25.3364 21.2777C25.7361 21.0461 25.9689 20.62 25.9689 20.1586V15.1624C25.8333 15.1224 25.6348 15.091 25.4417 15.0685ZM13.9413 14.4211C13.712 14.6779 13.3212 15.3403 13.1383 15.8946C12.7749 16.9953 12.9323 18.1138 13.1897 18.181C13.4902 18.2597 13.9831 16.7885 14.2191 16.213C14.367 15.8527 14.9421 14.2534 14.8161 14.0397C14.7178 13.8726 14.3103 14.0075 13.9413 14.4211ZM18.1001 18.1309C18.1001 18.1309 18.0276 18.1995 18.0589 18.2186C18.1014 18.244 18.1931 18.2111 18.2931 18.159C18.5758 17.981 19.2103 17.5371 19.2117 16.8802C19.2117 16.8611 19.211 16.8426 19.2097 16.8227C19.0625 17.0159 18.9269 17.1878 18.8099 17.3337C18.61 17.5823 18.1001 18.1309 18.1001 18.1309Z" fill="#bdf9f9"/>
</svg>
