<svg width="28" height="28" viewBox="0 0 28 28" fill="none" xmlns="http://www.w3.org/2000/svg">
<rect x="0.0253623" y="0.0253623" width="27.9493" height="27.9493" rx="0.228261" stroke="#12EAEA" stroke-width="0.0507246" stroke-dasharray="0.51 0.25"/>
<path d="M14 6.18848C10.5372 6.18848 8.37298 7.91988 7.50728 11.3827C8.80583 9.65128 10.3208 9.002 12.0522 9.43485C13.0401 9.68182 13.7461 10.3985 14.5277 11.1918C15.8008 12.4841 17.2744 13.9798 20.4928 13.9798C23.9556 13.9798 26.1198 12.2484 26.9855 8.78558C25.687 10.517 24.172 11.1663 22.4406 10.7334C21.4528 10.4864 20.7467 9.76978 19.9651 8.97647C18.692 7.68417 17.2185 6.18848 14 6.18848ZM7.50728 13.9798C4.04448 13.9798 1.88023 15.7112 1.01453 19.174C2.31308 17.4426 3.82805 16.7933 5.55945 17.2262C6.54731 17.4731 7.25339 18.1898 8.03492 18.9831C9.30808 20.2754 10.7816 21.7711 14 21.7711C17.4628 21.7711 19.6271 20.0397 20.4928 16.5769C19.1942 18.3083 17.6793 18.9576 15.9479 18.5247C14.96 18.2777 14.2539 17.5611 13.4724 16.7678C12.1992 15.4755 10.7257 13.9798 7.50728 13.9798Z" fill="#12EAEA"/>
</svg>
