<svg width="28" height="28" viewBox="0 0 28 28" fill="none" xmlns="http://www.w3.org/2000/svg">
<path fill-rule="evenodd" clip-rule="evenodd" d="M25.8125 0H2.1875C0.979377 0 0 0.979377 0 2.1875V25.8125C0 27.0206 0.979377 28 2.1875 28H25.8125C27.0206 28 28 27.0206 28 25.8125V2.1875C28 0.979377 27.0206 0 25.8125 0ZM16.4629 24.9479V21.927C17.0109 22.3864 17.6061 22.731 18.2487 22.9607C18.8911 23.1905 19.5398 23.3053 20.1949 23.3053C20.5791 23.3053 20.9146 23.2706 21.2011 23.2014C21.4877 23.1322 21.7271 23.0362 21.9192 22.9135C22.1113 22.7908 22.2546 22.646 22.349 22.4793C22.4435 22.3125 22.4908 22.1315 22.4908 21.9365C22.4908 21.6721 22.4152 21.4361 22.264 21.2284C22.1129 21.0207 21.9066 20.8287 21.6452 20.6525C21.3838 20.4763 21.0736 20.3065 20.7145 20.1428C20.3556 19.9791 19.9682 19.8124 19.5524 19.6424C18.4942 19.2019 17.7054 18.6637 17.1858 18.0282C16.666 17.3925 16.4062 16.6247 16.4062 15.7247C16.4062 15.0198 16.548 14.4141 16.8314 13.9075C17.1149 13.4008 17.5007 12.9839 17.9888 12.6565C18.4769 12.3293 19.0423 12.0886 19.6848 11.9345C20.3272 11.7802 21.0074 11.7031 21.7255 11.7031C22.431 11.7031 23.0561 11.7456 23.6009 11.8305C24.1457 11.9155 24.6481 12.0461 25.1079 12.2223V15.045C24.8812 14.8877 24.6339 14.7492 24.3662 14.6297C24.0985 14.51 23.823 14.4109 23.5396 14.3323C23.2561 14.2535 22.9742 14.1953 22.6939 14.1576C22.4137 14.1199 22.1476 14.101 21.8956 14.101C21.5492 14.101 21.2342 14.134 20.9508 14.2C20.6673 14.2662 20.428 14.359 20.2327 14.4786C20.0375 14.5982 19.8862 14.7413 19.7792 14.9081C19.6721 15.0749 19.6186 15.2621 19.6186 15.4698C19.6186 15.6964 19.6784 15.8993 19.7981 16.0787C19.9177 16.258 20.0878 16.428 20.3083 16.5885C20.5287 16.749 20.7965 16.9063 21.1113 17.0605C21.4263 17.2147 21.7821 17.3736 22.179 17.5373C22.7207 17.7638 23.2073 18.0045 23.6388 18.2594C24.0702 18.5143 24.4403 18.8022 24.7488 19.1232C25.0575 19.4441 25.2937 19.8108 25.4575 20.223C25.6212 20.6352 25.7031 21.1152 25.7031 21.6627C25.7031 22.4179 25.5598 23.052 25.2733 23.5648C24.9866 24.0778 24.5977 24.4932 24.1064 24.8111C23.6152 25.1288 23.0435 25.357 22.3916 25.4954C21.7397 25.6339 21.0515 25.7031 20.3272 25.7031C19.5839 25.7031 18.8769 25.6402 18.2061 25.5143C17.5353 25.3885 16.9542 25.1997 16.4629 24.9479ZM15.3125 14.4093H11.4277V25.4844H8.3502V14.4093H4.48438V11.9219H15.3125V14.4093Z" fill="#bdf9f9"/>
</svg>
