<svg width="20" height="20" viewBox="0 0 20 20" fill="none" xmlns="http://www.w3.org/2000/svg">
<rect width="20" height="20" rx="2.5" fill="#111214"/>
<path d="M7.86133 9.42188L6.68459 8.24514C6.0347 7.59525 6.0347 6.54156 6.68459 5.89167V5.89167C7.33449 5.24178 8.38817 5.24178 9.03806 5.89167L10.2148 7.0684L7.86133 9.42188Z" fill="white"/>
<rect x="12.7988" y="13.4888" width="3.32831" height="3.32831" rx="1.66415" transform="rotate(-135 12.7988 13.4888)" fill="#12EAEA"/>
<path fill-rule="evenodd" clip-rule="evenodd" d="M4.10708 14.0566C3.84712 14.3165 3.84712 14.738 4.10708 14.998C5.14691 16.0378 6.8328 16.0378 7.87263 14.998L10.8241 12.0465C10.2833 11.2381 10.3699 10.1344 11.0838 9.42056C11.7976 8.70668 12.9013 8.62014 13.7097 9.16092L16.4316 6.43903C16.6915 6.17908 16.6915 5.7576 16.4316 5.49764C15.3917 4.45782 13.7058 4.45782 12.666 5.49764L4.10708 14.0566Z" fill="white"/>
</svg>
