<svg width="20" height="20" viewBox="0 0 20 20" fill="none" xmlns="http://www.w3.org/2000/svg">
<path d="M10.0001 0C4.47791 0 0 4.59039 0 10.2532C0 14.7833 2.86533 18.6266 6.83867 19.9824C7.33844 20.0773 7.52192 19.76 7.52192 19.4891C7.52192 19.2446 7.51265 18.437 7.50834 17.5802C4.72631 18.2004 4.13927 16.3705 4.13927 16.3705C3.68437 15.1854 3.02894 14.8702 3.02894 14.8702C2.12163 14.2339 3.09733 14.2469 3.09733 14.2469C4.10151 14.3193 4.63026 15.3035 4.63026 15.3035C5.52217 16.871 6.96965 16.4178 7.5403 16.1559C7.63006 15.4932 7.88922 15.0409 8.1752 14.7848C5.95405 14.5256 3.61913 13.6464 3.61913 9.71766C3.61913 8.59825 4.00977 7.6836 4.64947 6.96556C4.54564 6.70731 4.20335 5.66447 4.74635 4.25218C4.74635 4.25218 5.58609 3.97661 7.49708 5.30317C8.29476 5.07599 9.15024 4.96206 10.0001 4.95816C10.8499 4.96206 11.7061 5.07599 12.5052 5.30317C14.4139 3.97661 15.2525 4.25218 15.2525 4.25218C15.7968 5.66447 15.4544 6.70731 15.3505 6.96556C15.9917 7.6836 16.3797 8.59825 16.3797 9.71766C16.3797 13.6557 14.0403 14.5228 11.8135 14.7767C12.1722 15.0949 12.4918 15.7188 12.4918 16.6754C12.4918 18.0473 12.4802 19.1514 12.4802 19.4891C12.4802 19.762 12.6602 20.0817 13.1671 19.981C17.1383 18.6237 20 14.7818 20 10.2532C20 4.59039 15.5227 0 10.0001 0Z" fill="#27273B"/>
<path d="M3.81712 14.651C3.79514 14.7014 3.71712 14.7165 3.64605 14.6819C3.57365 14.6488 3.53299 14.58 3.55646 14.5294C3.57795 14.4775 3.65613 14.463 3.72836 14.4978C3.80092 14.5309 3.84225 14.6004 3.81712 14.651Z" fill="#27273B"/>
<path d="M4.22142 15.1096C4.17382 15.1545 4.08076 15.1336 4.01762 15.0627C3.95233 14.9919 3.9401 14.8973 3.98836 14.8517C4.03745 14.8068 4.1277 14.8278 4.19316 14.8986C4.25844 14.9702 4.27117 15.0642 4.22142 15.1096Z" fill="#27273B"/>
<path d="M4.61497 15.6943C4.55382 15.7375 4.45382 15.697 4.392 15.6067C4.33084 15.5164 4.33084 15.4082 4.39332 15.3648C4.4553 15.3214 4.55382 15.3604 4.61646 15.45C4.67745 15.5418 4.67745 15.6501 4.61497 15.6943Z" fill="#27273B"/>
<path d="M5.15415 16.2591C5.09944 16.3205 4.98291 16.304 4.89762 16.2203C4.81035 16.1384 4.78605 16.0223 4.84092 15.9609C4.8963 15.8994 5.01349 15.9167 5.09944 15.9997C5.18605 16.0814 5.21249 16.1985 5.15415 16.2591Z" fill="#27273B"/>
<path d="M5.89795 16.5871C5.87382 16.6667 5.76158 16.7028 5.64853 16.669C5.53563 16.6342 5.46175 16.5411 5.48456 16.4607C5.50803 16.3807 5.62076 16.343 5.73464 16.3792C5.84737 16.4138 5.92142 16.5063 5.89795 16.5871Z" fill="#27273B"/>
<path d="M6.71481 16.648C6.71762 16.7317 6.62175 16.8011 6.50307 16.8027C6.38373 16.8053 6.2872 16.7376 6.28588 16.6552C6.28588 16.5707 6.3796 16.5019 6.49894 16.4999C6.61762 16.4975 6.71481 16.5648 6.71481 16.648Z" fill="#27273B"/>
<path d="M7.47497 16.5164C7.48919 16.5981 7.40671 16.6819 7.28886 16.7043C7.17299 16.7258 7.06572 16.6754 7.05101 16.5944C7.03663 16.5106 7.12059 16.4268 7.2363 16.4051C7.35431 16.3842 7.45993 16.4333 7.47497 16.5164Z" fill="#27273B"/>
</svg>
