<svg width="20" height="20" viewBox="0 0 20 20" fill="none" xmlns="http://www.w3.org/2000/svg">
<path d="M4.47686 20H0.330363V6.64702H4.47686V20ZM2.40138 4.82555C1.07546 4.82555 0 3.72732 0 2.40139C0 1.07514 1.07513 0 2.40138 0C3.72763 0 4.80276 1.07514 4.80276 2.40139C4.80276 3.72732 3.72685 4.82555 2.40138 4.82555ZM19.9959 20H15.8583V13.4999C15.8583 11.9507 15.8271 9.96406 13.7025 9.96406C11.5466 9.96406 11.2163 11.6471 11.2163 13.3882V20H7.07423V6.64702H11.0511V8.46849H11.1091C11.6627 7.41936 13.015 6.31219 15.0324 6.31219C19.2289 6.31219 20.0003 9.07565 20.0003 12.665V20H19.9959Z" fill="#27273B"/>
</svg>
