<svg width="50" height="24" viewBox="0 0 50 24" fill="none" xmlns="http://www.w3.org/2000/svg">
<path d="M7.976 14.9L0.808 1.38H4.888L9.656 11.012L14.408 1.38H18.472L11.336 14.9V22.5H7.976V14.9ZM28.285 19.556C29.501 19.556 30.5623 19.3907 31.469 19.06C32.3863 18.7187 33.053 18.3827 33.469 18.052L34.909 20.932C34.429 21.3587 33.5917 21.7907 32.397 22.228C31.2023 22.6653 29.773 22.884 28.109 22.884C26.5517 22.884 25.101 22.6067 23.757 22.052C22.413 21.4973 21.2343 20.7293 20.221 19.748C19.2077 18.756 18.4183 17.5987 17.853 16.276C17.2877 14.9533 17.005 13.5187 17.005 11.972C17.005 10.4253 17.2877 8.98533 17.853 7.652C18.4183 6.31867 19.2023 5.156 20.205 4.164C21.2183 3.172 22.397 2.39867 23.741 1.844C25.0957 1.27867 26.5517 0.995998 28.109 0.995998C29.773 0.995998 31.2023 1.21467 32.397 1.652C33.5917 2.08933 34.429 2.52133 34.909 2.948L33.469 5.828C33.053 5.49733 32.3863 5.16667 31.469 4.836C30.5623 4.49467 29.501 4.324 28.285 4.324C27.133 4.324 26.0877 4.516 25.149 4.9C24.2103 5.284 23.405 5.82267 22.733 6.516C22.061 7.20933 21.5437 8.02 21.181 8.948C20.8183 9.86533 20.637 10.8573 20.637 11.924C20.637 13.0013 20.8183 14.004 21.181 14.932C21.5437 15.86 22.061 16.6707 22.733 17.364C23.405 18.0573 24.2103 18.596 25.149 18.98C26.0877 19.364 27.133 19.556 28.285 19.556ZM36.6328 1.38H48.0088V4.388H39.9928V10.42H47.4488V13.412H39.9928V22.5H36.6328V1.38Z" fill="white"/>
</svg>
