<svg width="57" height="23" viewBox="0 0 57 23" fill="none" xmlns="http://www.w3.org/2000/svg">
<path d="M7.864 14.4L0.648 0.879999H5.496L9.848 9.808L14.216 0.879999H19.032L11.864 14.4V22H7.864V14.4ZM28.9138 18.432C30.0231 18.432 31.0098 18.2773 31.8738 17.968C32.7378 17.648 33.3724 17.3333 33.7778 17.024L35.4898 20.432C34.9991 20.8587 34.1511 21.2907 32.9458 21.728C31.7511 22.1653 30.3218 22.384 28.6578 22.384C27.1004 22.384 25.6444 22.112 24.2898 21.568C22.9351 21.0133 21.7458 20.2453 20.7218 19.264C19.6978 18.272 18.8978 17.1147 18.3218 15.792C17.7458 14.4587 17.4578 13.0187 17.4578 11.472C17.4578 9.92533 17.7404 8.48533 18.3058 7.152C18.8818 5.808 19.6818 4.64 20.7057 3.648C21.7298 2.656 22.9191 1.88267 24.2738 1.328C25.6391 0.773332 27.1004 0.495998 28.6578 0.495998C30.3218 0.495998 31.7511 0.714665 32.9458 1.152C34.1511 1.58933 34.9991 2.02133 35.4898 2.448L33.7778 5.856C33.3724 5.54667 32.7378 5.23733 31.8738 4.928C31.0098 4.608 30.0231 4.448 28.9138 4.448C27.7831 4.448 26.7751 4.62933 25.8898 4.992C25.0151 5.35467 24.2684 5.86133 23.6498 6.512C23.0418 7.152 22.5778 7.89333 22.2578 8.736C21.9378 9.57867 21.7778 10.4747 21.7778 11.424C21.7778 12.384 21.9378 13.2907 22.2578 14.144C22.5778 14.9867 23.0418 15.7333 23.6498 16.384C24.2684 17.024 25.0151 17.5253 25.8898 17.888C26.7751 18.2507 27.7831 18.432 28.9138 18.432ZM37.1305 0.879999H48.8745V4.416H41.1305V9.648H48.3145V13.168H41.1305V22H37.1305V0.879999Z" fill="white"/>
<path d="M53.749 22.384C53.0343 22.384 52.421 22.128 51.909 21.616C51.397 21.104 51.141 20.4907 51.141 19.776C51.141 19.04 51.397 18.416 51.909 17.904C52.421 17.392 53.0343 17.136 53.749 17.136C54.485 17.136 55.1037 17.392 55.605 17.904C56.117 18.416 56.373 19.04 56.373 19.776C56.373 20.4907 56.117 21.104 55.605 21.616C55.1037 22.128 54.485 22.384 53.749 22.384Z" fill="#F6AE3A"/>
</svg>
